<?xml version="1.0" standalone="no"?>
<svg viewBox="0 0 200 200" xmlns="http://www.w3.org/2000/svg">
  <path fill="#00B5AD" d="M41.5,-72.8C54.2,-64.5,65.3,-54.3,71.3,-41.8C77.2,-29.4,78.2,-14.7,78.3,0.1C78.4,14.8,77.6,29.6,71.5,41.8C65.3,54,53.8,63.6,41,70.8C28.2,78.1,14.1,83.1,-0.9,84.6C-15.8,86.1,-31.7,84.2,-44.9,77.2C-58.1,70.1,-68.6,57.9,-75.6,44.2C-82.6,30.5,-86.1,15.2,-87.2,-0.6C-88.2,-16.4,-86.8,-32.8,-78.6,-44.7C-70.5,-56.5,-55.7,-63.7,-41.5,-71C-27.3,-78.4,-13.6,-86,0.4,-86.6C14.4,-87.3,28.8,-81,41.5,-72.8Z" transform="translate(100 100)" />
</svg>
